<?xml version="1.0" encoding="UTF-8"?>
<svg id="Layer_1" data-name="Layer 1" xmlns="http://www.w3.org/2000/svg" viewBox="0 0 16 16">
    <path
        d="M8,1C4.41,1,1.5,2.04,1.5,3.33v9.33c0,1.29,2.91,2.33,6.5,2.33,1.62,0,3.09-.21,4.23-.56l-1.35-1.35c-.72.57-1.64.92-2.63.92-2.34,0-4.25-1.91-4.25-4.25s1.91-4.25,4.25-4.25,4.25,1.91,4.25,4.25c0,.99-.34,1.9-.92,2.63l1.66,1.66c.78-.39,1.25-.86,1.25-1.37V3.33c0-1.29-2.91-2.33-6.5-2.33ZM8,4.94c-2.03,0-3.98-.35-5.22-.94-.3-.14-.56-.3-.77-.47l.62-.78c.15.12.35.24.58.35,1.11.53,2.9.85,4.78.85,2.3,0,4.46-.48,5.37-1.2l.62.78c-1.1.87-3.4,1.41-5.99,1.41Z"
        fill="#3387c5"/>
    <path
        d="M8.25,6.5c-1.79,0-3.25,1.46-3.25,3.25s1.46,3.25,3.25,3.25,3.25-1.46,3.25-3.25-1.46-3.25-3.25-3.25ZM8.28,8c.93,0,1.68.26,1.71.59-.42.17-1.04.28-1.71.28s-1.29-.1-1.71-.28c.04-.33.79-.59,1.71-.59ZM10,11.08c0,.34-.77.62-1.72.62s-1.72-.28-1.72-.62v-1.96c.47.16,1.06.25,1.72.25s1.25-.09,1.72-.25v1.96Z"
        fill="#3387c5"/>
</svg>