<?xml version="1.0" encoding="UTF-8"?>
<svg id="Layer_1" data-name="Layer 1" xmlns="http://www.w3.org/2000/svg" viewBox="0 0 16 16">
    <circle cx="11.75" cy="9.75" r=".75" fill="#3387c5"/>
    <circle cx="4.25" cy="11.75" r=".75" fill="#3387c5"/>
    <circle cx="6.75" cy="7.25" r=".75" fill="#3387c5"/>
    <path
        d="M8,1C4.41,1,1.5,2.04,1.5,3.33v9.33c0,1.29,2.91,2.33,6.5,2.33s6.5-1.04,6.5-2.33V3.33c0-1.29-2.91-2.33-6.5-2.33ZM11.75,11.5c-.95,0-1.73-.77-1.75-1.71l-2.08-1.25c-.31.28-.72.46-1.17.46-.14,0-.28-.02-.41-.05l-.81,1.62c.29.31.47.73.47,1.19,0,.96-.79,1.75-1.75,1.75s-1.75-.79-1.75-1.75.79-1.75,1.75-1.75c.14,0,.28.02.41.05l.81-1.62c-.29-.31-.47-.73-.47-1.19,0-.96.79-1.75,1.75-1.75s1.75.79,1.75,1.75c0,.15-.02.29-.06.43l1.85,1.11c.31-.48.85-.79,1.46-.79.96,0,1.75.79,1.75,1.75s-.79,1.75-1.75,1.75ZM8,4.94c-2.03,0-3.98-.35-5.22-.94-.3-.14-.56-.3-.77-.47l.62-.78c.15.12.35.24.58.35,1.11.53,2.9.85,4.78.85,2.3,0,4.46-.48,5.37-1.2l.62.78c-1.1.87-3.4,1.41-5.99,1.41Z"
        fill="#3387c5"/>
</svg>