<svg width="16" height="16" viewBox="0 0 16 16" fill="none" xmlns="http://www.w3.org/2000/svg">
<path d="M0 4C0 1.79086 1.79086 0 4 0H12C14.2091 0 16 1.79086 16 4V12C16 14.2091 14.2091 16 12 16H4C1.79086 16 0 14.2091 0 12V4Z" fill="black"/>
<g clip-path="url(#clip0_7189_44224)">
<path fill-rule="evenodd" clip-rule="evenodd" d="M4.45329 2.44106C5.33228 1.58565 6.5518 1 7.90931 1H8.07824C9.43574 1 10.6553 1.58565 11.5343 2.44106C12.4071 3.29044 12.9875 4.45107 12.9875 5.64036V9.34768C12.9875 9.69644 12.7183 9.97917 12.3861 9.97917C12.054 9.97917 11.7847 9.69644 11.7847 9.34768V5.64036C11.7847 4.87842 11.4023 4.03461 10.7166 3.36737C10.0372 2.70615 9.10275 2.26297 8.07824 2.26297H7.90931C6.8848 2.26297 5.95038 2.70615 5.27093 3.36737C4.58528 4.03461 4.20283 4.87842 4.20283 5.64036V8.8581H6.11857C6.45073 8.8581 6.71999 9.14083 6.71999 9.48959C6.71999 9.83835 6.45073 10.1211 6.11857 10.1211H3.60142C3.26926 10.1211 3 9.83835 3 9.48959V5.64036C3 4.45107 3.58049 3.29044 4.45329 2.44106Z" fill="#43FF6B"/>
<path fill-rule="evenodd" clip-rule="evenodd" d="M10.7342 6.14153C10.9558 6.38866 10.9447 6.77765 10.7093 7.01036L8.39486 9.29861C8.15949 9.53131 7.78902 9.51962 7.5674 9.27248C7.34577 9.02534 7.35692 8.63635 7.59228 8.40365L9.90672 6.1154C10.1421 5.88269 10.5126 5.89439 10.7342 6.14153Z" fill="#05F3FF"/>
<path fill-rule="evenodd" clip-rule="evenodd" d="M7.87638 3.26953C8.19967 3.26953 8.46175 3.54471 8.46175 3.88417V11.76C8.46175 12.0995 8.19967 12.3746 7.87638 12.3746C7.55309 12.3746 7.29102 12.0995 7.29102 11.76V3.88417C7.29102 3.54471 7.55309 3.26953 7.87638 3.26953Z" fill="#05F3FF"/>
<path fill-rule="evenodd" clip-rule="evenodd" d="M7.87652 12.3748C7.50937 12.3748 7.21175 12.6873 7.21175 13.0728C7.21175 13.4583 7.50937 13.7708 7.87652 13.7708C8.24366 13.7708 8.54128 13.4583 8.54128 13.0728C8.54128 12.6873 8.24366 12.3748 7.87652 12.3748ZM6.04102 13.0728C6.04102 12.0084 6.8628 11.1455 7.87652 11.1455C8.89023 11.1455 9.71201 12.0084 9.71201 13.0728C9.71201 14.1372 8.89023 15.0001 7.87652 15.0001C6.8628 15.0001 6.04102 14.1372 6.04102 13.0728Z" fill="#05F3FF"/>
</g>
<defs>
<clipPath id="clip0_7189_44224">
<rect width="10" height="14" fill="white" transform="translate(3 1)"/>
</clipPath>
</defs>
</svg>
