<svg width="16" height="16" viewBox="0 0 16 16" fill="none" xmlns="http://www.w3.org/2000/svg">
<g clip-path="url(#clip0_3802_685)">
<path d="M8.69 13H2V5H14V8.65C14.38 8.89 14.71 9.18 15 9.51V4V2H1V14H9C8.86 13.69 8.75 13.35 8.69 13Z" fill="#3387C5"/>
<path d="M12 9C13.65 9 15 10.35 15 12C15 13.65 13.65 15 12 15C10.35 15 9 13.65 9 12C9 10.35 10.35 9 12 9ZM12 8C9.79 8 8 9.79 8 12C8 14.21 9.79 16 12 16C14.21 16 16 14.21 16 12C16 9.79 14.21 8 12 8Z" fill="#3387C5"/>
<path d="M8.47021 11.7604H9.41021V12.2404H9.88022V12.7104H10.3502V13.1804H10.8202V14.1204H11.2902V14.5904H11.7602V15.0604H12.7102V14.1204H13.1802V13.1804H12.7102V12.7104H12.2402V12.2404H11.7602L11.2902 11.7604L10.8202 12.2404H10.3502V11.2904H11.2902L11.7602 10.3504H12.7102L13.1802 9.41043H13.7702V8.94043H10.0102L9.07021 10.3504L8.47021 11.7604Z" fill="#3387C5"/>
</g>
<defs>
<clipPath id="clip0_3802_685">
<rect width="15" height="14" fill="white" transform="translate(1 2)"/>
</clipPath>
</defs>
</svg>
